<svg width="398" height="176" viewBox="0 0 398 176" fill="none" xmlns="http://www.w3.org/2000/svg">
<rect x="3" y="38" width="392" height="102" rx="18" fill="black" stroke="#E4BC00" stroke-width="6"/>
<rect x="47" y="34" width="80" height="7" fill="black"/>
<path d="M45.7 80.8H76.5V98.6H45.7V80.8ZM47.3 121H23.7L23.7 51H80.6V68.8H47.3L47.3 121ZM109.179 122C104.846 122 100.912 121.133 97.3789 119.4C93.9122 117.6 91.1789 114.833 89.1789 111.1C87.1789 107.3 86.1789 102.433 86.1789 96.5V66.3H108.779V92.6C108.779 96.4667 109.412 99.1667 110.679 100.7C111.946 102.233 113.679 103 115.879 103C117.212 103 118.446 102.667 119.579 102C120.779 101.267 121.746 100.1 122.479 98.5C123.212 96.8333 123.579 94.6667 123.579 92V66.3H146.179V121L124.679 121V105.2L128.979 109.5C127.046 113.767 124.279 116.933 120.679 119C117.146 121 113.312 122 109.179 122ZM186.403 122C179.736 122 173.903 120.767 168.903 118.3C163.97 115.833 160.136 112.467 157.403 108.2C154.67 103.867 153.303 99 153.303 93.6C153.303 88.0667 154.636 83.1667 157.303 78.9C160.036 74.6333 163.736 71.3 168.403 68.9C173.136 66.5 178.436 65.3 184.303 65.3C189.703 65.3 194.67 66.3667 199.203 68.5C203.803 70.6333 207.47 73.8 210.203 78C213.003 82.2 214.403 87.4 214.403 93.6C214.403 94.4 214.37 95.3 214.303 96.3C214.236 97.2333 214.17 98.1 214.103 98.9H172.003V88H202.103L193.603 90.9C193.603 88.7667 193.203 86.9667 192.403 85.5C191.67 83.9667 190.636 82.8 189.303 82C187.97 81.1333 186.37 80.7 184.503 80.7C182.636 80.7 181.003 81.1333 179.603 82C178.27 82.8 177.236 83.9667 176.503 85.5C175.77 86.9667 175.403 88.7667 175.403 90.9V94.3C175.403 96.6333 175.87 98.6333 176.803 100.3C177.736 101.967 179.07 103.233 180.803 104.1C182.536 104.9 184.636 105.3 187.103 105.3C189.636 105.3 191.703 104.967 193.303 104.3C194.97 103.633 196.703 102.633 198.503 101.3L210.303 113.2C207.636 116.067 204.336 118.267 200.403 119.8C196.536 121.267 191.87 122 186.403 122ZM221.535 121V66.3H243.035V82.8L239.535 78.1C241.202 73.8333 243.868 70.6333 247.535 68.5C251.202 66.3667 255.602 65.3 260.735 65.3V85.3C259.735 85.1667 258.835 85.0667 258.035 85C257.302 84.9333 256.535 84.9 255.735 84.9C252.335 84.9 249.535 85.8 247.335 87.6C245.202 89.3333 244.135 92.3667 244.135 96.7V121H221.535ZM265.141 121V108L294.241 75.6L297.941 82.8H265.941V66.3H316.241V79.3L287.141 111.7L283.441 104.5H317.341V121H265.141ZM357.272 121V111.3L355.672 108.7V90.3C355.672 87.6333 354.839 85.6 353.172 84.2C351.572 82.8 348.939 82.1 345.272 82.1C342.805 82.1 340.305 82.5 337.772 83.3C335.239 84.0333 333.072 85.0667 331.272 86.4L324.072 71.5C327.272 69.5 331.105 67.9667 335.572 66.9C340.039 65.8333 344.405 65.3 348.672 65.3C358.072 65.3 365.339 67.4 370.472 71.6C375.672 75.8 378.272 82.4667 378.272 91.6V121H357.272ZM341.772 122C337.305 122 333.572 121.233 330.572 119.7C327.572 118.167 325.305 116.133 323.772 113.6C322.239 111 321.472 108.133 321.472 105C321.472 101.467 322.372 98.4667 324.172 96C325.972 93.5333 328.705 91.6667 332.372 90.4C336.105 89.1333 340.805 88.5 346.472 88.5H357.872V99.4H350.072C347.672 99.4 345.905 99.8 344.772 100.6C343.705 101.333 343.172 102.467 343.172 104C343.172 105.267 343.639 106.333 344.572 107.2C345.572 108 346.905 108.4 348.572 108.4C350.105 108.4 351.505 108 352.772 107.2C354.105 106.333 355.072 105 355.672 103.2L358.572 109.9C357.705 113.967 355.872 117 353.072 119C350.272 121 346.505 122 341.772 122Z" fill="white"/>
<path d="M64.652 43V12.2H71.78V37.192H87.224V43H64.652ZM105.415 43V38.38L104.975 37.368V29.096C104.975 27.6293 104.52 26.4853 103.611 25.664C102.731 24.8427 101.367 24.432 99.5186 24.432C98.2572 24.432 97.0106 24.6373 95.7786 25.048C94.5759 25.4293 93.5492 25.9573 92.6986 26.632L90.2346 21.836C91.5252 20.9267 93.0799 20.2227 94.8986 19.724C96.7172 19.2253 98.5652 18.976 100.443 18.976C104.051 18.976 106.852 19.8267 108.847 21.528C110.841 23.2293 111.839 25.884 111.839 29.492V43H105.415ZM98.1986 43.352C96.3506 43.352 94.7666 43.044 93.4466 42.428C92.1266 41.7827 91.1146 40.9173 90.4106 39.832C89.7066 38.7467 89.3546 37.5293 89.3546 36.18C89.3546 34.772 89.6919 33.54 90.3666 32.484C91.0706 31.428 92.1706 30.6067 93.6666 30.02C95.1626 29.404 97.1132 29.096 99.5186 29.096H105.811V33.1H100.267C98.6532 33.1 97.5386 33.364 96.9226 33.892C96.3359 34.42 96.0426 35.08 96.0426 35.872C96.0426 36.752 96.3799 37.456 97.0546 37.984C97.7586 38.4827 98.7119 38.732 99.9146 38.732C101.059 38.732 102.085 38.468 102.995 37.94C103.904 37.3827 104.564 36.576 104.975 35.52L106.031 38.688C105.532 40.2133 104.623 41.372 103.303 42.164C101.983 42.956 100.281 43.352 98.1986 43.352Z" fill="#E4BC00"/>
<rect width="173" height="14" transform="matrix(1 0 0 -1 192 144)" fill="black"/>
<path d="M209.208 146.608H224.036V152.152H209.208V146.608ZM209.736 159.28H226.5V165H202.652V134.2H225.928V139.92H209.736V159.28ZM239.523 165.352C237.499 165.352 235.548 165.117 233.671 164.648C231.823 164.149 230.356 163.533 229.271 162.8L231.559 157.872C232.644 158.547 233.92 159.104 235.387 159.544C236.883 159.955 238.349 160.16 239.787 160.16C241.371 160.16 242.485 159.969 243.131 159.588C243.805 159.207 244.143 158.679 244.143 158.004C244.143 157.447 243.879 157.036 243.351 156.772C242.852 156.479 242.177 156.259 241.327 156.112C240.476 155.965 239.537 155.819 238.511 155.672C237.513 155.525 236.501 155.335 235.475 155.1C234.448 154.836 233.509 154.455 232.659 153.956C231.808 153.457 231.119 152.783 230.591 151.932C230.092 151.081 229.843 149.981 229.843 148.632C229.843 147.136 230.268 145.816 231.119 144.672C231.999 143.528 233.26 142.633 234.903 141.988C236.545 141.313 238.511 140.976 240.799 140.976C242.412 140.976 244.055 141.152 245.727 141.504C247.399 141.856 248.792 142.369 249.907 143.044L247.619 147.928C246.475 147.253 245.316 146.799 244.143 146.564C242.999 146.3 241.884 146.168 240.799 146.168C239.273 146.168 238.159 146.373 237.455 146.784C236.751 147.195 236.399 147.723 236.399 148.368C236.399 148.955 236.648 149.395 237.147 149.688C237.675 149.981 238.364 150.216 239.215 150.392C240.065 150.568 240.989 150.729 241.987 150.876C243.013 150.993 244.04 151.184 245.067 151.448C246.093 151.712 247.017 152.093 247.839 152.592C248.689 153.061 249.379 153.721 249.907 154.572C250.435 155.393 250.699 156.479 250.699 157.828C250.699 159.295 250.259 160.6 249.379 161.744C248.499 162.859 247.223 163.739 245.551 164.384C243.908 165.029 241.899 165.352 239.523 165.352ZM266.374 165.352C263.822 165.352 261.548 164.839 259.554 163.812C257.559 162.756 255.99 161.304 254.846 159.456C253.731 157.608 253.174 155.511 253.174 153.164C253.174 150.788 253.731 148.691 254.846 146.872C255.99 145.024 257.559 143.587 259.554 142.56C261.548 141.504 263.822 140.976 266.374 140.976C268.867 140.976 271.038 141.504 272.886 142.56C274.734 143.587 276.098 145.068 276.978 147.004L271.654 149.864C271.038 148.749 270.26 147.928 269.322 147.4C268.412 146.872 267.415 146.608 266.33 146.608C265.156 146.608 264.1 146.872 263.162 147.4C262.223 147.928 261.475 148.676 260.918 149.644C260.39 150.612 260.126 151.785 260.126 153.164C260.126 154.543 260.39 155.716 260.918 156.684C261.475 157.652 262.223 158.4 263.162 158.928C264.1 159.456 265.156 159.72 266.33 159.72C267.415 159.72 268.412 159.471 269.322 158.972C270.26 158.444 271.038 157.608 271.654 156.464L276.978 159.368C276.098 161.275 274.734 162.756 272.886 163.812C271.038 164.839 268.867 165.352 266.374 165.352ZM291.893 165.352C289.37 165.352 287.126 164.824 285.161 163.768C283.225 162.712 281.685 161.275 280.541 159.456C279.426 157.608 278.869 155.511 278.869 153.164C278.869 150.788 279.426 148.691 280.541 146.872C281.685 145.024 283.225 143.587 285.161 142.56C287.126 141.504 289.37 140.976 291.893 140.976C294.386 140.976 296.616 141.504 298.581 142.56C300.546 143.587 302.086 145.009 303.201 146.828C304.316 148.647 304.873 150.759 304.873 153.164C304.873 155.511 304.316 157.608 303.201 159.456C302.086 161.275 300.546 162.712 298.581 163.768C296.616 164.824 294.386 165.352 291.893 165.352ZM291.893 159.72C293.037 159.72 294.064 159.456 294.973 158.928C295.882 158.4 296.601 157.652 297.129 156.684C297.657 155.687 297.921 154.513 297.921 153.164C297.921 151.785 297.657 150.612 297.129 149.644C296.601 148.676 295.882 147.928 294.973 147.4C294.064 146.872 293.037 146.608 291.893 146.608C290.749 146.608 289.722 146.872 288.813 147.4C287.904 147.928 287.17 148.676 286.613 149.644C286.085 150.612 285.821 151.785 285.821 153.164C285.821 154.513 286.085 155.687 286.613 156.684C287.17 157.652 287.904 158.4 288.813 158.928C289.722 159.456 290.749 159.72 291.893 159.72ZM320.593 173.888C318.364 173.888 316.208 173.609 314.125 173.052C312.072 172.524 310.356 171.717 308.977 170.632L311.705 165.704C312.702 166.525 313.964 167.171 315.489 167.64C317.044 168.139 318.569 168.388 320.065 168.388C322.5 168.388 324.26 167.845 325.345 166.76C326.46 165.675 327.017 164.061 327.017 161.92V158.356L327.457 152.416L327.369 146.432V141.328H333.881V161.04C333.881 165.44 332.737 168.681 330.449 170.764C328.161 172.847 324.876 173.888 320.593 173.888ZM319.537 163.856C317.337 163.856 315.342 163.387 313.553 162.448C311.793 161.48 310.37 160.145 309.285 158.444C308.229 156.713 307.701 154.704 307.701 152.416C307.701 150.099 308.229 148.089 309.285 146.388C310.37 144.657 311.793 143.323 313.553 142.384C315.342 141.445 317.337 140.976 319.537 140.976C321.532 140.976 323.292 141.387 324.817 142.208C326.342 143 327.53 144.247 328.381 145.948C329.232 147.62 329.657 149.776 329.657 152.416C329.657 155.027 329.232 157.183 328.381 158.884C327.53 160.556 326.342 161.803 324.817 162.624C323.292 163.445 321.532 163.856 319.537 163.856ZM320.901 158.224C322.104 158.224 323.174 157.989 324.113 157.52C325.052 157.021 325.785 156.332 326.313 155.452C326.841 154.572 327.105 153.56 327.105 152.416C327.105 151.243 326.841 150.231 326.313 149.38C325.785 148.5 325.052 147.825 324.113 147.356C323.174 146.857 322.104 146.608 320.901 146.608C319.698 146.608 318.628 146.857 317.689 147.356C316.75 147.825 316.002 148.5 315.445 149.38C314.917 150.231 314.653 151.243 314.653 152.416C314.653 153.56 314.917 154.572 315.445 155.452C316.002 156.332 316.75 157.021 317.689 157.52C318.628 157.989 319.698 158.224 320.901 158.224ZM352.018 165.352C349.319 165.352 346.943 164.824 344.89 163.768C342.866 162.712 341.296 161.275 340.182 159.456C339.067 157.608 338.51 155.511 338.51 153.164C338.51 150.788 339.052 148.691 340.138 146.872C341.252 145.024 342.763 143.587 344.67 142.56C346.576 141.504 348.732 140.976 351.138 140.976C353.455 140.976 355.538 141.475 357.386 142.472C359.263 143.44 360.744 144.848 361.83 146.696C362.915 148.515 363.458 150.7 363.458 153.252C363.458 153.516 363.443 153.824 363.414 154.176C363.384 154.499 363.355 154.807 363.326 155.1H344.098V151.096H359.718L357.078 152.284C357.078 151.052 356.828 149.981 356.33 149.072C355.831 148.163 355.142 147.459 354.262 146.96C353.382 146.432 352.355 146.168 351.182 146.168C350.008 146.168 348.967 146.432 348.058 146.96C347.178 147.459 346.488 148.177 345.99 149.116C345.491 150.025 345.242 151.111 345.242 152.372V153.428C345.242 154.719 345.52 155.863 346.078 156.86C346.664 157.828 347.471 158.576 348.498 159.104C349.554 159.603 350.786 159.852 352.194 159.852C353.455 159.852 354.555 159.661 355.494 159.28C356.462 158.899 357.342 158.327 358.134 157.564L361.786 161.524C360.7 162.756 359.336 163.709 357.694 164.384C356.051 165.029 354.159 165.352 352.018 165.352Z" fill="#E4BC00"/>
</svg>
